<svg width="1290" height="815" viewBox="0 0 1290 815" fill="none" xmlns="http://www.w3.org/2000/svg">
<rect width="1290" height="815" fill="#F5F5F5"/>
<g filter="url(#filter0_d_0_1)">
<g clip-path="url(#clip0_0_1)">
<rect x="5" y="1" width="1280" height="805" fill="white"/>
<g filter="url(#filter1_d_0_1)">
<rect x="5" y="1" width="1280" height="805" fill="#F2F2F2"/>
<rect x="5.5" y="1.5" width="1279" height="804" stroke="black"/>
</g>
<rect x="223" y="1" width="1062" height="74" fill="url(#paint0_linear_0_1)"/>
<g filter="url(#filter2_d_0_1)">
<path d="M245 91H495V221H245V91Z" fill="white"/>
<path d="M495 221V221.5H495.5V221H495ZM494.5 91V221H495.5V91H494.5ZM495 220.5H245V221.5H495V220.5Z" fill="#B6B9BA"/>
</g>
<g filter="url(#filter3_d_0_1)">
<path d="M245 237H495V790H245V237Z" fill="white"/>
<path d="M495 790V790.5H495.5V790H495ZM494.5 237V790H495.5V237H494.5ZM495 789.5H245V790.5H495V789.5Z" fill="#B6B9BA"/>
</g>
<g filter="url(#filter4_d_0_1)">
<path d="M507 237H1278V524H507V237Z" fill="white"/>
<path d="M1278 524V524.5H1278.5V524H1278ZM1277.5 237V524H1278.5V237H1277.5ZM1278 523.5H507V524.5H1278V523.5Z" fill="#B6B9BA"/>
</g>
<g filter="url(#filter5_d_0_1)">
<path d="M507 540H887V790H507V540Z" fill="white"/>
<path d="M887 790V790.5H887.5V790H887ZM886.5 540V790H887.5V540H886.5ZM887 789.5H507V790.5H887V789.5Z" fill="#B6B9BA"/>
</g>
<g filter="url(#filter6_d_0_1)">
<path d="M899 540H1279V790H899V540Z" fill="white"/>
<path d="M1279 790V790.5H1279.5V790H1279ZM1278.5 540V790H1279.5V540H1278.5ZM1279 789.5H899V790.5H1279V789.5Z" fill="#B6B9BA"/>
</g>
<g filter="url(#filter7_d_0_1)">
<path d="M506 91H756V221H506V91Z" fill="white"/>
<path d="M756 221V221.5H756.5V221H756ZM755.5 91V221H756.5V91H755.5ZM756 220.5H506V221.5H756V220.5Z" fill="#B6B9BA"/>
</g>
<g filter="url(#filter8_d_0_1)">
<path d="M767 91H1017V221H767V91Z" fill="white"/>
<path d="M1017 221V221.5H1017.5V221H1017ZM1016.5 91V221H1017.5V91H1016.5ZM1017 220.5H767V221.5H1017V220.5Z" fill="#B6B9BA"/>
</g>
<g filter="url(#filter9_d_0_1)">
<path d="M1028 91H1278V221H1028V91Z" fill="#05AFF2"/>
<path d="M1028 91V90.5H1027.5V91H1028ZM1278 91H1278.5V90.5H1278V91ZM1278 221V221.5H1278.5V221H1278ZM1028 221H1027.5V221.5H1028V221ZM1028 91.5H1278V90.5H1028V91.5ZM1277.5 91V221H1278.5V91H1277.5ZM1278 220.5H1028V221.5H1278V220.5ZM1028.5 221V91H1027.5V221H1028.5Z" fill="#B6B9BA"/>
</g>
<rect x="5" y="1" width="228" height="74" fill="#05AFF2"/>
<g filter="url(#filter10_f_0_1)">
<rect x="5" y="75" width="228" height="731" fill="white"/>
</g>
</g>
<rect x="4.5" y="0.5" width="1281" height="806" stroke="black"/>
<rect x="4.5" y="0.5" width="1281" height="806" stroke="white"/>
</g>
<defs>
<filter id="filter0_d_0_1" x="0" y="0" width="1290" height="815" filterUnits="userSpaceOnUse" color-interpolation-filters="sRGB">
<feFlood flood-opacity="0" result="BackgroundImageFix"/>
<feColorMatrix in="SourceAlpha" type="matrix" values="0 0 0 0 0 0 0 0 0 0 0 0 0 0 0 0 0 0 127 0" result="hardAlpha"/>
<feOffset dy="4"/>
<feGaussianBlur stdDeviation="2"/>
<feComposite in2="hardAlpha" operator="out"/>
<feColorMatrix type="matrix" values="0 0 0 0 0 0 0 0 0 0 0 0 0 0 0 0 0 0 0.25 0"/>
<feBlend mode="normal" in2="BackgroundImageFix" result="effect1_dropShadow_0_1"/>
<feBlend mode="normal" in="SourceGraphic" in2="effect1_dropShadow_0_1" result="shape"/>
</filter>
<filter id="filter1_d_0_1" x="1" y="1" width="1288" height="813" filterUnits="userSpaceOnUse" color-interpolation-filters="sRGB">
<feFlood flood-opacity="0" result="BackgroundImageFix"/>
<feColorMatrix in="SourceAlpha" type="matrix" values="0 0 0 0 0 0 0 0 0 0 0 0 0 0 0 0 0 0 127 0" result="hardAlpha"/>
<feOffset dy="4"/>
<feGaussianBlur stdDeviation="2"/>
<feComposite in2="hardAlpha" operator="out"/>
<feColorMatrix type="matrix" values="0 0 0 0 0 0 0 0 0 0 0 0 0 0 0 0 0 0 0.25 0"/>
<feBlend mode="normal" in2="BackgroundImageFix" result="effect1_dropShadow_0_1"/>
<feBlend mode="normal" in="SourceGraphic" in2="effect1_dropShadow_0_1" result="shape"/>
</filter>
<filter id="filter2_d_0_1" x="241" y="91" width="258.5" height="138.5" filterUnits="userSpaceOnUse" color-interpolation-filters="sRGB">
<feFlood flood-opacity="0" result="BackgroundImageFix"/>
<feColorMatrix in="SourceAlpha" type="matrix" values="0 0 0 0 0 0 0 0 0 0 0 0 0 0 0 0 0 0 127 0" result="hardAlpha"/>
<feOffset dy="4"/>
<feGaussianBlur stdDeviation="2"/>
<feComposite in2="hardAlpha" operator="out"/>
<feColorMatrix type="matrix" values="0 0 0 0 0 0 0 0 0 0 0 0 0 0 0 0 0 0 0.25 0"/>
<feBlend mode="normal" in2="BackgroundImageFix" result="effect1_dropShadow_0_1"/>
<feBlend mode="normal" in="SourceGraphic" in2="effect1_dropShadow_0_1" result="shape"/>
</filter>
<filter id="filter3_d_0_1" x="241" y="237" width="258.5" height="561.5" filterUnits="userSpaceOnUse" color-interpolation-filters="sRGB">
<feFlood flood-opacity="0" result="BackgroundImageFix"/>
<feColorMatrix in="SourceAlpha" type="matrix" values="0 0 0 0 0 0 0 0 0 0 0 0 0 0 0 0 0 0 127 0" result="hardAlpha"/>
<feOffset dy="4"/>
<feGaussianBlur stdDeviation="2"/>
<feComposite in2="hardAlpha" operator="out"/>
<feColorMatrix type="matrix" values="0 0 0 0 0 0 0 0 0 0 0 0 0 0 0 0 0 0 0.25 0"/>
<feBlend mode="normal" in2="BackgroundImageFix" result="effect1_dropShadow_0_1"/>
<feBlend mode="normal" in="SourceGraphic" in2="effect1_dropShadow_0_1" result="shape"/>
</filter>
<filter id="filter4_d_0_1" x="503" y="237" width="779.5" height="295.5" filterUnits="userSpaceOnUse" color-interpolation-filters="sRGB">
<feFlood flood-opacity="0" result="BackgroundImageFix"/>
<feColorMatrix in="SourceAlpha" type="matrix" values="0 0 0 0 0 0 0 0 0 0 0 0 0 0 0 0 0 0 127 0" result="hardAlpha"/>
<feOffset dy="4"/>
<feGaussianBlur stdDeviation="2"/>
<feComposite in2="hardAlpha" operator="out"/>
<feColorMatrix type="matrix" values="0 0 0 0 0 0 0 0 0 0 0 0 0 0 0 0 0 0 0.25 0"/>
<feBlend mode="normal" in2="BackgroundImageFix" result="effect1_dropShadow_0_1"/>
<feBlend mode="normal" in="SourceGraphic" in2="effect1_dropShadow_0_1" result="shape"/>
</filter>
<filter id="filter5_d_0_1" x="503" y="540" width="388.5" height="258.5" filterUnits="userSpaceOnUse" color-interpolation-filters="sRGB">
<feFlood flood-opacity="0" result="BackgroundImageFix"/>
<feColorMatrix in="SourceAlpha" type="matrix" values="0 0 0 0 0 0 0 0 0 0 0 0 0 0 0 0 0 0 127 0" result="hardAlpha"/>
<feOffset dy="4"/>
<feGaussianBlur stdDeviation="2"/>
<feComposite in2="hardAlpha" operator="out"/>
<feColorMatrix type="matrix" values="0 0 0 0 0 0 0 0 0 0 0 0 0 0 0 0 0 0 0.25 0"/>
<feBlend mode="normal" in2="BackgroundImageFix" result="effect1_dropShadow_0_1"/>
<feBlend mode="normal" in="SourceGraphic" in2="effect1_dropShadow_0_1" result="shape"/>
</filter>
<filter id="filter6_d_0_1" x="895" y="540" width="388.5" height="258.5" filterUnits="userSpaceOnUse" color-interpolation-filters="sRGB">
<feFlood flood-opacity="0" result="BackgroundImageFix"/>
<feColorMatrix in="SourceAlpha" type="matrix" values="0 0 0 0 0 0 0 0 0 0 0 0 0 0 0 0 0 0 127 0" result="hardAlpha"/>
<feOffset dy="4"/>
<feGaussianBlur stdDeviation="2"/>
<feComposite in2="hardAlpha" operator="out"/>
<feColorMatrix type="matrix" values="0 0 0 0 0 0 0 0 0 0 0 0 0 0 0 0 0 0 0.25 0"/>
<feBlend mode="normal" in2="BackgroundImageFix" result="effect1_dropShadow_0_1"/>
<feBlend mode="normal" in="SourceGraphic" in2="effect1_dropShadow_0_1" result="shape"/>
</filter>
<filter id="filter7_d_0_1" x="502" y="91" width="258.5" height="138.5" filterUnits="userSpaceOnUse" color-interpolation-filters="sRGB">
<feFlood flood-opacity="0" result="BackgroundImageFix"/>
<feColorMatrix in="SourceAlpha" type="matrix" values="0 0 0 0 0 0 0 0 0 0 0 0 0 0 0 0 0 0 127 0" result="hardAlpha"/>
<feOffset dy="4"/>
<feGaussianBlur stdDeviation="2"/>
<feComposite in2="hardAlpha" operator="out"/>
<feColorMatrix type="matrix" values="0 0 0 0 0 0 0 0 0 0 0 0 0 0 0 0 0 0 0.25 0"/>
<feBlend mode="normal" in2="BackgroundImageFix" result="effect1_dropShadow_0_1"/>
<feBlend mode="normal" in="SourceGraphic" in2="effect1_dropShadow_0_1" result="shape"/>
</filter>
<filter id="filter8_d_0_1" x="763" y="91" width="258.5" height="138.5" filterUnits="userSpaceOnUse" color-interpolation-filters="sRGB">
<feFlood flood-opacity="0" result="BackgroundImageFix"/>
<feColorMatrix in="SourceAlpha" type="matrix" values="0 0 0 0 0 0 0 0 0 0 0 0 0 0 0 0 0 0 127 0" result="hardAlpha"/>
<feOffset dy="4"/>
<feGaussianBlur stdDeviation="2"/>
<feComposite in2="hardAlpha" operator="out"/>
<feColorMatrix type="matrix" values="0 0 0 0 0 0 0 0 0 0 0 0 0 0 0 0 0 0 0.25 0"/>
<feBlend mode="normal" in2="BackgroundImageFix" result="effect1_dropShadow_0_1"/>
<feBlend mode="normal" in="SourceGraphic" in2="effect1_dropShadow_0_1" result="shape"/>
</filter>
<filter id="filter9_d_0_1" x="1023.5" y="90.5" width="259" height="139" filterUnits="userSpaceOnUse" color-interpolation-filters="sRGB">
<feFlood flood-opacity="0" result="BackgroundImageFix"/>
<feColorMatrix in="SourceAlpha" type="matrix" values="0 0 0 0 0 0 0 0 0 0 0 0 0 0 0 0 0 0 127 0" result="hardAlpha"/>
<feOffset dy="4"/>
<feGaussianBlur stdDeviation="2"/>
<feComposite in2="hardAlpha" operator="out"/>
<feColorMatrix type="matrix" values="0 0 0 0 0 0 0 0 0 0 0 0 0 0 0 0 0 0 0.25 0"/>
<feBlend mode="normal" in2="BackgroundImageFix" result="effect1_dropShadow_0_1"/>
<feBlend mode="normal" in="SourceGraphic" in2="effect1_dropShadow_0_1" result="shape"/>
</filter>
<filter id="filter10_f_0_1" x="1" y="71" width="236" height="739" filterUnits="userSpaceOnUse" color-interpolation-filters="sRGB">
<feFlood flood-opacity="0" result="BackgroundImageFix"/>
<feBlend mode="normal" in="SourceGraphic" in2="BackgroundImageFix" result="shape"/>
<feGaussianBlur stdDeviation="2" result="effect1_foregroundBlur_0_1"/>
</filter>
<linearGradient id="paint0_linear_0_1" x1="900.883" y1="37.9997" x2="172.02" y2="37.9998" gradientUnits="userSpaceOnUse">
<stop offset="0.661667" stop-color="#05D6F2"/>
<stop offset="1" stop-color="#05DBF2" stop-opacity="0"/>
</linearGradient>
<clipPath id="clip0_0_1">
<rect x="5" y="1" width="1280" height="805" fill="white"/>
</clipPath>
</defs>
</svg>
