<svg width="1290" height="815" viewBox="0 0 1290 815" fill="none" xmlns="http://www.w3.org/2000/svg">
<rect width="1290" height="815" fill="#F5F5F5"/>
<g filter="url(#filter0_d_0_1)">
<g clip-path="url(#clip0_0_1)">
<rect x="5" y="1" width="1280" height="805" fill="white"/>
<g filter="url(#filter1_d_0_1)">
<rect x="5" y="1" width="1280" height="805" fill="#F2F2F2"/>
<rect x="5.5" y="1.5" width="1279" height="804" stroke="black"/>
</g>
<rect x="223" y="1" width="1062" height="74" fill="url(#paint0_linear_0_1)"/>
<g filter="url(#filter2_d_0_1)">
<path d="M247 430H639V806H247V430Z" fill="white"/>
<path d="M639 806V806.5H639.5V806H639ZM638.5 430V806H639.5V430H638.5ZM639 805.5H247V806.5H639V805.5Z" fill="#B6B9BA"/>
</g>
<g filter="url(#filter3_d_0_1)">
<path d="M247 85H443V266H247V85Z" fill="white"/>
<path d="M443 266V266.5H443.5V266H443ZM442.5 85V266H443.5V85H442.5ZM443 265.5H247V266.5H443V265.5Z" fill="#B6B9BA"/>
</g>
<g filter="url(#filter4_d_0_1)">
<path d="M1085 85H1281V266H1085V85Z" fill="white"/>
<path d="M1281 266V266.5H1281.5V266H1281ZM1280.5 85V266H1281.5V85H1280.5ZM1281 265.5H1085V266.5H1281V265.5Z" fill="#B6B9BA"/>
</g>
<g filter="url(#filter5_d_0_1)">
<path d="M877 85H1073V266H877V85Z" fill="white"/>
<path d="M1073 266V266.5H1073.5V266H1073ZM1072.5 85V266H1073.5V85H1072.5ZM1073 265.5H877V266.5H1073V265.5Z" fill="#B6B9BA"/>
</g>
<g filter="url(#filter6_d_0_1)">
<path d="M667 85H863V266H667V85Z" fill="white"/>
<path d="M863 266V266.5H863.5V266H863ZM862.5 85V266H863.5V85H862.5ZM863 265.5H667V266.5H863V265.5Z" fill="#B6B9BA"/>
</g>
<g filter="url(#filter7_d_0_1)">
<path d="M457 85H653V266H457V85Z" fill="white"/>
<path d="M653 266V266.5H653.5V266H653ZM652.5 85V266H653.5V85H652.5ZM653 265.5H457V266.5H653V265.5Z" fill="#B6B9BA"/>
</g>
<g filter="url(#filter8_d_0_1)">
<path d="M652 282H1281V455H652V282Z" fill="white"/>
<path d="M1281 455V455.5H1281.5V455H1281ZM1280.5 282V455H1281.5V282H1280.5ZM1281 454.5H652V455.5H1281V454.5Z" fill="#B6B9BA"/>
</g>
<g filter="url(#filter9_d_0_1)">
<path d="M652 465H1281V806H652V465Z" fill="white"/>
<path d="M1281 806V806.5H1281.5V806H1281ZM1280.5 465V806H1281.5V465H1280.5ZM1281 805.5H652V806.5H1281V805.5Z" fill="#B6B9BA"/>
</g>
<g filter="url(#filter10_d_0_1)">
<path d="M247 282H639V411H247V282Z" fill="white"/>
<path d="M639 411V411.5H639.5V411H639ZM638.5 282V411H639.5V282H638.5ZM639 410.5H247V411.5H639V410.5Z" fill="#B6B9BA"/>
</g>
<rect x="5" y="1" width="228" height="74" fill="#05AFF2"/>
<g filter="url(#filter11_f_0_1)">
<rect x="5" y="75" width="228" height="731" fill="white"/>
</g>
</g>
<rect x="4.5" y="0.5" width="1281" height="806" stroke="black"/>
<rect x="4.5" y="0.5" width="1281" height="806" stroke="white"/>
</g>
<defs>
<filter id="filter0_d_0_1" x="0" y="0" width="1290" height="815" filterUnits="userSpaceOnUse" color-interpolation-filters="sRGB">
<feFlood flood-opacity="0" result="BackgroundImageFix"/>
<feColorMatrix in="SourceAlpha" type="matrix" values="0 0 0 0 0 0 0 0 0 0 0 0 0 0 0 0 0 0 127 0" result="hardAlpha"/>
<feOffset dy="4"/>
<feGaussianBlur stdDeviation="2"/>
<feComposite in2="hardAlpha" operator="out"/>
<feColorMatrix type="matrix" values="0 0 0 0 0 0 0 0 0 0 0 0 0 0 0 0 0 0 0.25 0"/>
<feBlend mode="normal" in2="BackgroundImageFix" result="effect1_dropShadow_0_1"/>
<feBlend mode="normal" in="SourceGraphic" in2="effect1_dropShadow_0_1" result="shape"/>
</filter>
<filter id="filter1_d_0_1" x="1" y="1" width="1288" height="813" filterUnits="userSpaceOnUse" color-interpolation-filters="sRGB">
<feFlood flood-opacity="0" result="BackgroundImageFix"/>
<feColorMatrix in="SourceAlpha" type="matrix" values="0 0 0 0 0 0 0 0 0 0 0 0 0 0 0 0 0 0 127 0" result="hardAlpha"/>
<feOffset dy="4"/>
<feGaussianBlur stdDeviation="2"/>
<feComposite in2="hardAlpha" operator="out"/>
<feColorMatrix type="matrix" values="0 0 0 0 0 0 0 0 0 0 0 0 0 0 0 0 0 0 0.25 0"/>
<feBlend mode="normal" in2="BackgroundImageFix" result="effect1_dropShadow_0_1"/>
<feBlend mode="normal" in="SourceGraphic" in2="effect1_dropShadow_0_1" result="shape"/>
</filter>
<filter id="filter2_d_0_1" x="243" y="430" width="400.5" height="384.5" filterUnits="userSpaceOnUse" color-interpolation-filters="sRGB">
<feFlood flood-opacity="0" result="BackgroundImageFix"/>
<feColorMatrix in="SourceAlpha" type="matrix" values="0 0 0 0 0 0 0 0 0 0 0 0 0 0 0 0 0 0 127 0" result="hardAlpha"/>
<feOffset dy="4"/>
<feGaussianBlur stdDeviation="2"/>
<feComposite in2="hardAlpha" operator="out"/>
<feColorMatrix type="matrix" values="0 0 0 0 0 0 0 0 0 0 0 0 0 0 0 0 0 0 0.25 0"/>
<feBlend mode="normal" in2="BackgroundImageFix" result="effect1_dropShadow_0_1"/>
<feBlend mode="normal" in="SourceGraphic" in2="effect1_dropShadow_0_1" result="shape"/>
</filter>
<filter id="filter3_d_0_1" x="243" y="85" width="204.5" height="189.5" filterUnits="userSpaceOnUse" color-interpolation-filters="sRGB">
<feFlood flood-opacity="0" result="BackgroundImageFix"/>
<feColorMatrix in="SourceAlpha" type="matrix" values="0 0 0 0 0 0 0 0 0 0 0 0 0 0 0 0 0 0 127 0" result="hardAlpha"/>
<feOffset dy="4"/>
<feGaussianBlur stdDeviation="2"/>
<feComposite in2="hardAlpha" operator="out"/>
<feColorMatrix type="matrix" values="0 0 0 0 0 0 0 0 0 0 0 0 0 0 0 0 0 0 0.25 0"/>
<feBlend mode="normal" in2="BackgroundImageFix" result="effect1_dropShadow_0_1"/>
<feBlend mode="normal" in="SourceGraphic" in2="effect1_dropShadow_0_1" result="shape"/>
</filter>
<filter id="filter4_d_0_1" x="1081" y="85" width="204.5" height="189.5" filterUnits="userSpaceOnUse" color-interpolation-filters="sRGB">
<feFlood flood-opacity="0" result="BackgroundImageFix"/>
<feColorMatrix in="SourceAlpha" type="matrix" values="0 0 0 0 0 0 0 0 0 0 0 0 0 0 0 0 0 0 127 0" result="hardAlpha"/>
<feOffset dy="4"/>
<feGaussianBlur stdDeviation="2"/>
<feComposite in2="hardAlpha" operator="out"/>
<feColorMatrix type="matrix" values="0 0 0 0 0 0 0 0 0 0 0 0 0 0 0 0 0 0 0.25 0"/>
<feBlend mode="normal" in2="BackgroundImageFix" result="effect1_dropShadow_0_1"/>
<feBlend mode="normal" in="SourceGraphic" in2="effect1_dropShadow_0_1" result="shape"/>
</filter>
<filter id="filter5_d_0_1" x="873" y="85" width="204.5" height="189.5" filterUnits="userSpaceOnUse" color-interpolation-filters="sRGB">
<feFlood flood-opacity="0" result="BackgroundImageFix"/>
<feColorMatrix in="SourceAlpha" type="matrix" values="0 0 0 0 0 0 0 0 0 0 0 0 0 0 0 0 0 0 127 0" result="hardAlpha"/>
<feOffset dy="4"/>
<feGaussianBlur stdDeviation="2"/>
<feComposite in2="hardAlpha" operator="out"/>
<feColorMatrix type="matrix" values="0 0 0 0 0 0 0 0 0 0 0 0 0 0 0 0 0 0 0.25 0"/>
<feBlend mode="normal" in2="BackgroundImageFix" result="effect1_dropShadow_0_1"/>
<feBlend mode="normal" in="SourceGraphic" in2="effect1_dropShadow_0_1" result="shape"/>
</filter>
<filter id="filter6_d_0_1" x="663" y="85" width="204.5" height="189.5" filterUnits="userSpaceOnUse" color-interpolation-filters="sRGB">
<feFlood flood-opacity="0" result="BackgroundImageFix"/>
<feColorMatrix in="SourceAlpha" type="matrix" values="0 0 0 0 0 0 0 0 0 0 0 0 0 0 0 0 0 0 127 0" result="hardAlpha"/>
<feOffset dy="4"/>
<feGaussianBlur stdDeviation="2"/>
<feComposite in2="hardAlpha" operator="out"/>
<feColorMatrix type="matrix" values="0 0 0 0 0 0 0 0 0 0 0 0 0 0 0 0 0 0 0.25 0"/>
<feBlend mode="normal" in2="BackgroundImageFix" result="effect1_dropShadow_0_1"/>
<feBlend mode="normal" in="SourceGraphic" in2="effect1_dropShadow_0_1" result="shape"/>
</filter>
<filter id="filter7_d_0_1" x="453" y="85" width="204.5" height="189.5" filterUnits="userSpaceOnUse" color-interpolation-filters="sRGB">
<feFlood flood-opacity="0" result="BackgroundImageFix"/>
<feColorMatrix in="SourceAlpha" type="matrix" values="0 0 0 0 0 0 0 0 0 0 0 0 0 0 0 0 0 0 127 0" result="hardAlpha"/>
<feOffset dy="4"/>
<feGaussianBlur stdDeviation="2"/>
<feComposite in2="hardAlpha" operator="out"/>
<feColorMatrix type="matrix" values="0 0 0 0 0 0 0 0 0 0 0 0 0 0 0 0 0 0 0.25 0"/>
<feBlend mode="normal" in2="BackgroundImageFix" result="effect1_dropShadow_0_1"/>
<feBlend mode="normal" in="SourceGraphic" in2="effect1_dropShadow_0_1" result="shape"/>
</filter>
<filter id="filter8_d_0_1" x="648" y="282" width="637.5" height="181.5" filterUnits="userSpaceOnUse" color-interpolation-filters="sRGB">
<feFlood flood-opacity="0" result="BackgroundImageFix"/>
<feColorMatrix in="SourceAlpha" type="matrix" values="0 0 0 0 0 0 0 0 0 0 0 0 0 0 0 0 0 0 127 0" result="hardAlpha"/>
<feOffset dy="4"/>
<feGaussianBlur stdDeviation="2"/>
<feComposite in2="hardAlpha" operator="out"/>
<feColorMatrix type="matrix" values="0 0 0 0 0 0 0 0 0 0 0 0 0 0 0 0 0 0 0.25 0"/>
<feBlend mode="normal" in2="BackgroundImageFix" result="effect1_dropShadow_0_1"/>
<feBlend mode="normal" in="SourceGraphic" in2="effect1_dropShadow_0_1" result="shape"/>
</filter>
<filter id="filter9_d_0_1" x="648" y="465" width="637.5" height="349.5" filterUnits="userSpaceOnUse" color-interpolation-filters="sRGB">
<feFlood flood-opacity="0" result="BackgroundImageFix"/>
<feColorMatrix in="SourceAlpha" type="matrix" values="0 0 0 0 0 0 0 0 0 0 0 0 0 0 0 0 0 0 127 0" result="hardAlpha"/>
<feOffset dy="4"/>
<feGaussianBlur stdDeviation="2"/>
<feComposite in2="hardAlpha" operator="out"/>
<feColorMatrix type="matrix" values="0 0 0 0 0 0 0 0 0 0 0 0 0 0 0 0 0 0 0.25 0"/>
<feBlend mode="normal" in2="BackgroundImageFix" result="effect1_dropShadow_0_1"/>
<feBlend mode="normal" in="SourceGraphic" in2="effect1_dropShadow_0_1" result="shape"/>
</filter>
<filter id="filter10_d_0_1" x="243" y="282" width="400.5" height="137.5" filterUnits="userSpaceOnUse" color-interpolation-filters="sRGB">
<feFlood flood-opacity="0" result="BackgroundImageFix"/>
<feColorMatrix in="SourceAlpha" type="matrix" values="0 0 0 0 0 0 0 0 0 0 0 0 0 0 0 0 0 0 127 0" result="hardAlpha"/>
<feOffset dy="4"/>
<feGaussianBlur stdDeviation="2"/>
<feComposite in2="hardAlpha" operator="out"/>
<feColorMatrix type="matrix" values="0 0 0 0 0 0 0 0 0 0 0 0 0 0 0 0 0 0 0.25 0"/>
<feBlend mode="normal" in2="BackgroundImageFix" result="effect1_dropShadow_0_1"/>
<feBlend mode="normal" in="SourceGraphic" in2="effect1_dropShadow_0_1" result="shape"/>
</filter>
<filter id="filter11_f_0_1" x="1" y="71" width="236" height="739" filterUnits="userSpaceOnUse" color-interpolation-filters="sRGB">
<feFlood flood-opacity="0" result="BackgroundImageFix"/>
<feBlend mode="normal" in="SourceGraphic" in2="BackgroundImageFix" result="shape"/>
<feGaussianBlur stdDeviation="2" result="effect1_foregroundBlur_0_1"/>
</filter>
<linearGradient id="paint0_linear_0_1" x1="900.883" y1="37.9997" x2="172.02" y2="37.9998" gradientUnits="userSpaceOnUse">
<stop offset="0.661667" stop-color="#05D6F2"/>
<stop offset="1" stop-color="#05DBF2" stop-opacity="0"/>
</linearGradient>
<clipPath id="clip0_0_1">
<rect x="5" y="1" width="1280" height="805" fill="white"/>
</clipPath>
</defs>
</svg>
